<?xml version="1.0" encoding="UTF-8" standalone="no"?>
<svg
   xmlns:dc="http://purl.org/dc/elements/1.1/"
   xmlns:cc="http://creativecommons.org/ns#"
   xmlns:rdf="http://www.w3.org/1999/02/22-rdf-syntax-ns#"
   xmlns:svg="http://www.w3.org/2000/svg"
   xmlns="http://www.w3.org/2000/svg"
   xmlns:sodipodi="http://sodipodi.sourceforge.net/DTD/sodipodi-0.dtd"
   xmlns:inkscape="http://www.inkscape.org/namespaces/inkscape"
   width="347"
   height="125"
   viewBox="0 0 347 125"
   fill="none"
   version="1.1"
   id="svg90"
   sodipodi:docname="intercom-transparent-logo.svg"
   inkscape:version="1.0.1 (c497b03c, 2020-09-10)">
  <metadata
     id="metadata96">
    <rdf:RDF>
      <cc:Work
         rdf:about="">
        <dc:format>image/svg+xml</dc:format>
        <dc:type
           rdf:resource="http://purl.org/dc/dcmitype/StillImage" />
      </cc:Work>
    </rdf:RDF>
  </metadata>
  <defs
     id="defs94" />
  <sodipodi:namedview
     pagecolor="#ffffff"
     bordercolor="#666666"
     borderopacity="1"
     objecttolerance="10"
     gridtolerance="10"
     guidetolerance="10"
     inkscape:pageopacity="0"
     inkscape:pageshadow="2"
     inkscape:window-width="705"
     inkscape:window-height="480"
     id="namedview92"
     showgrid="false"
     inkscape:snap-bbox="true"
     inkscape:zoom="1.0446607"
     inkscape:cx="114.90354"
     inkscape:cy="87.505655"
     inkscape:window-x="0"
     inkscape:window-y="23"
     inkscape:window-maximized="0"
     inkscape:current-layer="svg90" />
  <path
     fill-rule="evenodd"
     clip-rule="evenodd"
     d="m 103.935,73.6042 c 0,1.2714 -0.932,2.3166 -2.258,2.3166 -1.29,0 -2.222,-1.0476 -2.222,-2.3166 V 51.5161 c 0,-1.2715 0.932,-2.3167 2.258,-2.3167 1.29,0 2.222,1.0476 2.222,2.3167 z"
     fill="#000000"
     id="path72" />
  <path
     fill-rule="evenodd"
     clip-rule="evenodd"
     d="m 132.892,51.5161 v 20.1833 c 0,2.7286 -1.397,4.2619 -3.619,4.2619 h -0.178 c -2.114,0 -3.119,-1.2714 -4.014,-3.1405 l -4.516,-9.1571 -4.014,-9.4548 0.108,9.1572 0.036,10.2024 c 0,1.2714 -0.931,2.3166 -2.258,2.3166 -1.29,0 -2.221,-1.0476 -2.221,-2.3166 V 53.3851 c 0,-2.5047 1.397,-4.2619 3.835,-4.2619 h 0.179 c 2.258,0 3.189,1.2715 4.086,3.1405 l 4.443,9.0833 3.799,8.8215 -0.107,-8.4477 -0.036,-10.2023 c 0,-1.2715 0.931,-2.3167 2.258,-2.3167 1.287,-0.0024 2.219,1.0429 2.219,2.3143 z"
     fill="#000000"
     id="path74" />
  <path
     fill-rule="evenodd"
     clip-rule="evenodd"
     d="m 150.848,73.5685 c 0,1.2714 -0.931,2.3166 -2.258,2.3166 -1.289,0 -2.221,-1.0476 -2.221,-2.3166 V 53.5732 h -5.555 c -1.146,0 -2.077,-0.8976 -2.077,-2.2048 0,-1.2714 0.931,-2.1666 2.077,-2.1666 h 15.589 c 1.146,0 2.078,0.8976 2.078,2.2047 0,1.2715 -0.932,2.1667 -2.078,2.1667 h -5.555 z"
     fill="#000000"
     id="path76" />
  <path
     fill-rule="evenodd"
     clip-rule="evenodd"
     d="M 164.323,72.8208 V 52.078 c 0,-1.9429 1.039,-3.0262 2.939,-2.9524 h 12.902 c 1.146,0 2.077,0.9333 2.077,2.2048 0,1.2714 -0.931,2.1666 -2.077,2.1666 h -11.398 v 6.4286 h 10.071 c 1.112,0 2.007,0.8595 2.007,2.0929 0,1.2333 -0.895,2.0928 -2.007,2.0928 h -10.071 v 7.4 h 11.398 c 1.146,0 2.077,0.9334 2.077,2.2048 0,1.2714 -0.931,2.1667 -2.077,2.1667 h -13.01 c -1.863,0.0023 -2.901,-1.081 -2.831,-3.062 z"
     fill="#000000"
     id="path78" />
  <path
     fill-rule="evenodd"
     clip-rule="evenodd"
     d="m 206.65,75.997 c 1.254,-0.6738 1.649,-2.0571 1.039,-3.1404 l -4.48,-8.2953 c 3.692,-0.7476 5.843,-3.5881 5.843,-7.4381 0,-4.0357 -2.436,-7.9976 -8.279,-7.9976 h -8.493 c -1.899,-0.0738 -2.938,1.0095 -2.938,2.9524 v 21.5286 c 0,1.269 0.931,2.3166 2.221,2.3166 1.327,0 2.258,-1.0452 2.258,-2.3166 l -0.036,-8.1477 h 4.73 l 4.982,9.6048 c 0.607,1.0833 1.934,1.5691 3.153,0.9333 z m -5.772,-14.7642 h -7.096 v -7.7381 h 7.06 c 2.365,0 3.692,1.569 3.692,3.85 0,2.2809 -1.254,3.8881 -3.656,3.8881 z"
     fill="#000000"
     id="path80" />
  <path
     fill-rule="evenodd"
     clip-rule="evenodd"
     d="m 218.296,73.9042 c -2.687,-2.5048 -3.906,-6.4286 -3.906,-11.3619 0,-4.9715 1.183,-8.8572 3.836,-11.3239 1.648,-1.4952 3.869,-2.5047 7.096,-2.5047 2.831,0 5.018,0.6738 6.666,2.1309 1.434,1.1953 2.473,2.8786 3.082,5.2334 0.322,1.2333 -0.502,2.4666 -1.863,2.7285 -1.29,0.2239 -2.328,-0.6357 -2.723,-1.869 -0.43,-1.1952 -1.005,-2.0548 -1.685,-2.6548 -0.932,-0.8595 -2.078,-1.2333 -3.585,-1.2333 -1.612,0 -3.011,0.4857 -4.05,1.569 -1.505,1.5691 -2.151,4.3739 -2.151,7.9239 0,3.5142 0.61,6.3166 2.187,7.8857 1.039,1.0833 2.402,1.569 3.978,1.569 1.648,0 2.902,-0.4476 3.943,-1.4571 0.536,-0.5238 1.004,-1.1953 1.326,-1.981 0.466,-1.1595 1.434,-2.019 2.687,-1.719 1.254,0.3 2.044,1.569 1.649,2.8024 -0.646,2.0547 -1.756,3.7 -3.261,4.8214 -1.648,1.2333 -3.691,1.869 -6.271,1.869 -3.297,0 -5.377,-1.0095 -6.955,-2.4285 z"
     fill="#000000"
     id="path82" />
  <path
     fill-rule="evenodd"
     clip-rule="evenodd"
     d="m 251.198,48.7137 c -7.778,0 -11.075,5.4571 -11.075,13.8286 0,8.6333 3.263,13.8285 11.075,13.8285 7.669,0 11.039,-5.1952 11.039,-13.8285 0,-8.5215 -3.333,-13.8286 -11.039,-13.8286 z m -0.036,4.3738 c 4.265,0 6.486,3.1 6.486,9.4548 0,6.3523 -2.258,9.4547 -6.486,9.4547 -4.265,0 -6.416,-3.1 -6.416,-9.4547 0,-6.3524 2.222,-9.4548 6.416,-9.4548 z"
     fill="#000000"
     id="path84" />
  <path
     fill-rule="evenodd"
     clip-rule="evenodd"
     d="m 297,73.5684 c 0,1.2715 -0.932,2.3167 -2.258,2.3167 -1.29,0 -2.222,-1.0476 -2.222,-2.3167 V 63.5518 l 0.108,-9.7548 -3.119,9.9048 -3.153,9.7547 c -0.536,1.7191 -1.648,2.3929 -3.046,2.3929 -1.47,0 -2.545,-0.7095 -3.118,-2.4286 l -3.226,-9.7166 -2.975,-9.7548 0.107,9.6048 v 10.0166 c 0,1.2715 -0.932,2.3167 -2.258,2.3167 -1.29,0 -2.221,-1.0476 -2.221,-2.3167 V 53.5756 c 0,-2.7667 1.433,-4.3738 3.942,-4.3738 2.366,0 3.692,1.3071 4.443,3.7 l 3.297,10.2024 2.007,6.9523 2.043,-6.9523 3.297,-10.2024 c 0.754,-2.3929 2.044,-3.7 4.409,-3.7 2.509,0 3.906,1.569 3.906,4.3738 z"
     fill="#000000"
     id="path86" />
  <path
     d="m 63.2824,66.3609 c 0,0.6685 -0.2561,1.3097 -0.7119,1.7825 -0.4559,0.4727 -1.0742,0.7383 -1.7189,0.7383 -0.6447,0 -1.263,-0.2656 -1.7189,-0.7383 -0.4559,-0.4728 -0.712,-1.114 -0.712,-1.7825 V 43.8401 c 0,-0.6686 0.2561,-1.3098 0.712,-1.7825 0.4559,-0.4728 1.0742,-0.7384 1.7189,-0.7384 0.6447,0 1.263,0.2656 1.7189,0.7384 0.4558,0.4727 0.7119,1.1139 0.7119,1.7825 z M 62.4387,81.965 c -0.3215,0.3334 -9.3618,8.1459 -25.9358,8.1459 -16.574,0 -25.554,-7.7709 -25.9357,-8.1042 C 10.3266,81.7964 10.1285,81.5389 9.9841,81.249 9.8397,80.959 9.752,80.6424 9.7258,80.3173 c -0.0261,-0.3252 0.0099,-0.6525 0.106,-0.9632 0.0961,-0.3107 0.2504,-0.5987 0.4541,-0.8474 0.4196,-0.5034 1.014,-0.8144 1.6538,-0.8651 0.6398,-0.0508 1.273,0.1629 1.7614,0.5943 0.1407,0.1041 8.2167,6.8958 22.7817,6.8958 14.565,0 22.7013,-6.8333 22.7817,-6.8958 0.4939,-0.4275 1.1292,-0.6384 1.7707,-0.5878 0.6415,0.0505 1.2387,0.3586 1.6646,0.8586 0.4099,0.4959 0.6145,1.1395 0.5693,1.791 -0.0451,0.6515 -0.3363,1.2581 -0.8103,1.6882 z M 9.7033,43.8401 c 0.0363,-0.6707 0.3272,-1.2992 0.8091,-1.7482 0.4818,-0.4489 1.1155,-0.6818 1.7624,-0.6477 0.5997,0.0353 1.1656,0.2997 1.5885,0.7421 0.4229,0.4424 0.6729,1.0315 0.7017,1.6538 v 22.4791 c 0,0.6686 -0.2561,1.3098 -0.712,1.7825 -0.4558,0.4728 -1.0741,0.7383 -1.7188,0.7383 -0.6447,0 -1.263,-0.2655 -1.7189,-0.7383 -0.4559,-0.4727 -0.712,-1.1139 -0.712,-1.7825 z m 12.1944,-5 c 0.0364,-0.6707 0.3272,-1.2992 0.8091,-1.7482 0.4818,-0.4489 1.1155,-0.6818 1.7624,-0.6477 0.5997,0.0353 1.1656,0.2997 1.5885,0.7421 0.4229,0.4424 0.6729,1.0315 0.7017,1.6538 v 33.3333 c 0,0.6685 -0.2561,1.3097 -0.7119,1.7825 -0.4559,0.4727 -1.0742,0.7383 -1.7189,0.7383 -0.6447,0 -1.263,-0.2656 -1.7189,-0.7383 -0.4559,-0.4728 -0.712,-1.114 -0.712,-1.7825 z m 12.2547,-1.25 c 0,-0.6686 0.2561,-1.3098 0.712,-1.7825 0.4559,-0.4728 1.0742,-0.7384 1.7189,-0.7384 0.6447,0 1.263,0.2656 1.7188,0.7384 0.4559,0.4727 0.712,1.1139 0.712,1.7825 V 73.84 c 0,0.6686 -0.2561,1.3098 -0.712,1.7825 -0.4558,0.4728 -1.0741,0.7384 -1.7188,0.7384 -0.6447,0 -1.263,-0.2656 -1.7189,-0.7384 -0.4559,-0.4727 -0.712,-1.1139 -0.712,-1.7825 z m 12.0538,1.25 c 0,-0.6686 0.2561,-1.3098 0.712,-1.7825 0.4559,-0.4728 1.0742,-0.7384 1.7189,-0.7384 0.6447,0 1.263,0.2656 1.7188,0.7384 0.4559,0.4727 0.712,1.1139 0.712,1.7825 v 33.3333 c 0,0.6685 -0.2561,1.3097 -0.712,1.7825 -0.4558,0.4727 -1.0741,0.7383 -1.7188,0.7383 -0.6447,0 -1.263,-0.2656 -1.7189,-0.7383 -0.4559,-0.4728 -0.712,-1.114 -0.712,-1.7825 z m 17.7392,-13.75 H 9.1408 C 7.9466,25.0818 6.7626,25.3179 5.6566,25.7849 4.5505,26.2518 3.5442,26.9404 2.6951,27.8112 1.846,28.6821 1.1709,29.718 0.7085,30.8598 0.246,32.0015 0.0053,33.2267 0,34.4651 V 90.715 c 0.0053,1.2384 0.246,2.4636 0.7085,3.6053 0.4624,1.1418 1.1375,2.1777 1.9866,3.0486 0.8491,0.8708 1.8554,1.5594 2.9615,2.0263 1.106,0.467 2.29,0.7028 3.4842,0.6948 h 54.8046 c 1.1925,0.008 2.3748,-0.2271 3.4796,-0.6928 1.1047,-0.4656 2.1102,-1.1524 2.959,-2.021 0.8488,-0.8686 1.5243,-1.9021 1.988,-3.0414 0.4636,-1.1394 0.7063,-2.3623 0.7142,-3.5989 V 34.4651 c -0.0053,-1.2367 -0.2454,-2.4601 -0.7066,-3.6005 -0.4612,-1.1404 -1.1345,-2.1754 -1.9814,-3.046 -0.847,-0.8705 -1.851,-1.5595 -2.9547,-2.0277 -1.1037,-0.4682 -2.2855,-0.7063 -3.478,-0.7008"
     fill="black"
     id="path88" />
</svg>
